<?xml version="1.0" encoding="UTF-8"?>
<!DOCTYPE svg PUBLIC "-//W3C//DTD SVG 1.1//EN"
    "http://www.w3.org/Graphics/SVG/1.1/DTD/svg11.dtd"><svg xmlns="http://www.w3.org/2000/svg" height="3.3321" stroke-opacity="1" viewBox="0.0 0.0 3.5999999999999996 3.3320508075688777" font-size="1" width="3.6000" xmlns:xlink="http://www.w3.org/1999/xlink" stroke="rgb(0,0,0)" version="1.1"><defs></defs><g stroke-linejoin="miter" stroke-opacity="1.0" fill-opacity="1.0" stroke="rgb(0,0,0)" stroke-width="0.5" fill="rgb(0,0,0)" stroke-linecap="butt" stroke-miterlimit="10.0"><path d="M 2.1000,2.5321 c 0.0000,-0.4418 -0.3582,-0.8000 -0.8000 -0.8000c -0.4418,-0.0000 -0.8000,0.3582 -0.8000 0.8000c -0.0000,0.4418 0.3582,0.8000 0.8000 0.8000c 0.4418,0.0000 0.8000,-0.3582 0.8000 -0.8000Z"/></g><g stroke-linejoin="miter" stroke-opacity="1.0" fill-opacity="1.0" stroke="rgb(0,0,0)" stroke-width="0.5" fill="rgb(0,0,0)" stroke-linecap="butt" stroke-miterlimit="10.0"><path d="M 1.6000,1.6660 c 0.0000,-0.4418 -0.3582,-0.8000 -0.8000 -0.8000c -0.4418,-0.0000 -0.8000,0.3582 -0.8000 0.8000c -0.0000,0.4418 0.3582,0.8000 0.8000 0.8000c 0.4418,0.0000 0.8000,-0.3582 0.8000 -0.8000Z"/></g><g stroke-linejoin="miter" stroke-opacity="1.0" fill-opacity="1.0" stroke="rgb(0,0,0)" stroke-width="0.5" fill="rgb(0,0,0)" stroke-linecap="butt" stroke-miterlimit="10.0"><path d="M 2.1000,0.8000 c 0.0000,-0.4418 -0.3582,-0.8000 -0.8000 -0.8000c -0.4418,-0.0000 -0.8000,0.3582 -0.8000 0.8000c -0.0000,0.4418 0.3582,0.8000 0.8000 0.8000c 0.4418,0.0000 0.8000,-0.3582 0.8000 -0.8000Z"/></g><g stroke-linejoin="miter" stroke-opacity="1.0" fill-opacity="1.0" stroke="rgb(0,0,0)" stroke-width="0.5" fill="rgb(0,0,0)" stroke-linecap="butt" stroke-miterlimit="10.0"><path d="M 3.1000,0.8000 c 0.0000,-0.4418 -0.3582,-0.8000 -0.8000 -0.8000c -0.4418,-0.0000 -0.8000,0.3582 -0.8000 0.8000c -0.0000,0.4418 0.3582,0.8000 0.8000 0.8000c 0.4418,0.0000 0.8000,-0.3582 0.8000 -0.8000Z"/></g><g stroke-linejoin="miter" stroke-opacity="1.0" fill-opacity="1.0" stroke="rgb(0,0,0)" stroke-width="0.5" fill="rgb(0,0,0)" stroke-linecap="butt" stroke-miterlimit="10.0"><path d="M 3.6000,1.6660 c 0.0000,-0.4418 -0.3582,-0.8000 -0.8000 -0.8000c -0.4418,-0.0000 -0.8000,0.3582 -0.8000 0.8000c -0.0000,0.4418 0.3582,0.8000 0.8000 0.8000c 0.4418,0.0000 0.8000,-0.3582 0.8000 -0.8000Z"/></g><g stroke-linejoin="miter" stroke-opacity="1.0" fill-opacity="1.0" stroke="rgb(0,0,0)" stroke-width="0.5" fill="rgb(0,0,0)" stroke-linecap="butt" stroke-miterlimit="10.0"><path d="M 3.1000,2.5321 c 0.0000,-0.4418 -0.3582,-0.8000 -0.8000 -0.8000c -0.4418,-0.0000 -0.8000,0.3582 -0.8000 0.8000c -0.0000,0.4418 0.3582,0.8000 0.8000 0.8000c 0.4418,0.0000 0.8000,-0.3582 0.8000 -0.8000Z"/></g></svg>