<?xml version="1.0" encoding="UTF-8"?>
<!DOCTYPE svg PUBLIC "-//W3C//DTD SVG 1.1//EN"
    "http://www.w3.org/Graphics/SVG/1.1/DTD/svg11.dtd"><svg xmlns="http://www.w3.org/2000/svg" height="370.2279" stroke-opacity="1" viewBox="0.0 0.0 400.0 370.2278675076531" font-size="1" width="400.0000" xmlns:xlink="http://www.w3.org/1999/xlink" stroke="rgb(0,0,0)" version="1.1"><defs></defs><g stroke-linejoin="miter" stroke-opacity="1.0" fill-opacity="1.0" stroke="rgb(0,0,0)" stroke-width="1.539304502705355" fill="rgb(0,0,0)" stroke-linecap="butt" stroke-miterlimit="10.0"><path d="M 233.3333,281.3390 c 0.0000,-49.0920 -39.7969,-88.8889 -88.8889 -88.8889c -49.0920,-0.0000 -88.8889,39.7969 -88.8889 88.8889c -0.0000,49.0920 39.7969,88.8889 88.8889 88.8889c 49.0920,0.0000 88.8889,-39.7969 88.8889 -88.8889Z"/></g><g stroke-linejoin="miter" stroke-opacity="1.0" fill-opacity="1.0" stroke="rgb(0,0,0)" stroke-width="1.539304502705355" fill="rgb(0,0,0)" stroke-linecap="butt" stroke-miterlimit="10.0"><path d="M 177.7778,185.1139 c 0.0000,-49.0920 -39.7969,-88.8889 -88.8889 -88.8889c -49.0920,-0.0000 -88.8889,39.7969 -88.8889 88.8889c -0.0000,49.0920 39.7969,88.8889 88.8889 88.8889c 49.0920,0.0000 88.8889,-39.7969 88.8889 -88.8889Z"/></g><g stroke-linejoin="miter" stroke-opacity="1.0" fill-opacity="1.0" stroke="rgb(0,0,0)" stroke-width="1.539304502705355" fill="rgb(0,0,0)" stroke-linecap="butt" stroke-miterlimit="10.0"><path d="M 233.3333,88.8889 c 0.0000,-49.0920 -39.7969,-88.8889 -88.8889 -88.8889c -49.0920,-0.0000 -88.8889,39.7969 -88.8889 88.8889c -0.0000,49.0920 39.7969,88.8889 88.8889 88.8889c 49.0920,0.0000 88.8889,-39.7969 88.8889 -88.8889Z"/></g><g stroke-linejoin="miter" stroke-opacity="1.0" fill-opacity="1.0" stroke="rgb(0,0,0)" stroke-width="1.539304502705355" fill="rgb(0,0,0)" stroke-linecap="butt" stroke-miterlimit="10.0"><path d="M 344.4444,88.8889 c 0.0000,-49.0920 -39.7969,-88.8889 -88.8889 -88.8889c -49.0920,-0.0000 -88.8889,39.7969 -88.8889 88.8889c -0.0000,49.0920 39.7969,88.8889 88.8889 88.8889c 49.0920,0.0000 88.8889,-39.7969 88.8889 -88.8889Z"/></g><g stroke-linejoin="miter" stroke-opacity="1.0" fill-opacity="1.0" stroke="rgb(0,0,0)" stroke-width="1.539304502705355" fill="rgb(0,0,0)" stroke-linecap="butt" stroke-miterlimit="10.0"><path d="M 400.0000,185.1139 c 0.0000,-49.0920 -39.7969,-88.8889 -88.8889 -88.8889c -49.0920,-0.0000 -88.8889,39.7969 -88.8889 88.8889c -0.0000,49.0920 39.7969,88.8889 88.8889 88.8889c 49.0920,0.0000 88.8889,-39.7969 88.8889 -88.8889Z"/></g><g stroke-linejoin="miter" stroke-opacity="1.0" fill-opacity="1.0" stroke="rgb(0,0,0)" stroke-width="1.539304502705355" fill="rgb(0,0,0)" stroke-linecap="butt" stroke-miterlimit="10.0"><path d="M 344.4444,281.3390 c 0.0000,-49.0920 -39.7969,-88.8889 -88.8889 -88.8889c -49.0920,-0.0000 -88.8889,39.7969 -88.8889 88.8889c -0.0000,49.0920 39.7969,88.8889 88.8889 88.8889c 49.0920,0.0000 88.8889,-39.7969 88.8889 -88.8889Z"/></g></svg>